<?xml version="1.0" encoding="utf-8" standalone="no"?>
<!DOCTYPE svg PUBLIC "-//W3C//DTD SVG 1.1//EN"
  "http://www.w3.org/Graphics/SVG/1.1/DTD/svg11.dtd">
<svg xmlns:xlink="http://www.w3.org/1999/xlink" width="734.4pt" height="313.2pt" viewBox="0 0 734.4 313.2" xmlns="http://www.w3.org/2000/svg" version="1.1">
 <metadata>
  <rdf:RDF xmlns:dc="http://purl.org/dc/elements/1.1/" xmlns:cc="http://creativecommons.org/ns#" xmlns:rdf="http://www.w3.org/1999/02/22-rdf-syntax-ns#">
   <cc:Work>
    <dc:type rdf:resource="http://purl.org/dc/dcmitype/StillImage"/>
    <dc:format>image/svg+xml</dc:format>
    <dc:creator>
     <cc:Agent>
      <dc:title>Matplotlib v3.11.1, https://matplotlib.org/</dc:title>
     </cc:Agent>
    </dc:creator>
   </cc:Work>
  </rdf:RDF>
 </metadata>
 <defs>
  <style type="text/css">*{stroke-linejoin: round; stroke-linecap: butt}</style>
 </defs>
 <g id="figure_1">
  <g id="patch_1">
   <path d="M 0 313.2
L 734.4 313.2
L 734.4 0
L 0 0
z
" style="fill: #ffffff"/>
  </g>
  <g id="axes_1">
   <g id="patch_2">
    <path d="M 48.612896 148.6888
L 155.944907 148.6888
Q 162.258555 148.6888 162.258555 142.564
L 162.258555 78.2536
Q 162.258555 72.1288 155.944907 72.1288
L 48.612896 72.1288
Q 42.299248 72.1288 42.299248 78.2536
L 42.299248 142.564
Q 42.299248 148.6888 48.612896 148.6888
z
" clip-path="url(#pf51b7c73cb)" style="fill: #eef3f8; stroke: #416b8a; stroke-width: 1.5; stroke-linejoin: miter"/>
   </g>
   <g id="patch_3">
    <path d="M 187.513146 148.6888
L 285.374687 148.6888
Q 291.688334 148.6888 291.688334 142.564
L 291.688334 78.2536
Q 291.688334 72.1288 285.374687 72.1288
L 187.513146 72.1288
Q 181.199499 72.1288 181.199499 78.2536
L 181.199499 142.564
Q 181.199499 148.6888 187.513146 148.6888
z
" clip-path="url(#pf51b7c73cb)" style="fill: #eaf5f3; stroke: #087f83; stroke-width: 1.5; stroke-linejoin: miter"/>
   </g>
   <g id="patch_4">
    <path d="M 324.834985 148.6888
L 442.163606 148.6888
Q 448.477254 148.6888 448.477254 142.564
L 448.477254 78.2536
Q 448.477254 72.1288 442.163606 72.1288
L 324.834985 72.1288
Q 318.521337 72.1288 318.521337 78.2536
L 318.521337 142.564
Q 318.521337 148.6888 324.834985 148.6888
z
" clip-path="url(#pf51b7c73cb)" style="fill: #eef3f8; stroke: #416b8a; stroke-width: 1.5; stroke-linejoin: miter"/>
   </g>
   <g id="patch_5">
    <path d="M 481.623904 148.6888
L 568.436561 148.6888
Q 574.750209 148.6888 574.750209 142.564
L 574.750209 78.2536
Q 574.750209 72.1288 568.436561 72.1288
L 481.623904 72.1288
Q 475.310257 72.1288 475.310257 78.2536
L 475.310257 142.564
Q 475.310257 148.6888 481.623904 148.6888
z
" clip-path="url(#pf51b7c73cb)" style="fill: #eaf5f3; stroke: #087f83; stroke-width: 1.5; stroke-linejoin: miter"/>
   </g>
   <g id="patch_6">
    <path d="M 607.89686 148.6888
L 694.709516 148.6888
Q 701.023164 148.6888 701.023164 142.564
L 701.023164 78.2536
Q 701.023164 72.1288 694.709516 72.1288
L 607.89686 72.1288
Q 601.583212 72.1288 601.583212 78.2536
L 601.583212 142.564
Q 601.583212 148.6888 607.89686 148.6888
z
" clip-path="url(#pf51b7c73cb)" style="fill: #eaf5f3; stroke: #087f83; stroke-width: 1.5; stroke-linejoin: miter"/>
   </g>
   <g id="patch_7">
    <path d="M 341.145242 235.4568
L 441.637469 235.4568
Q 447.951116 235.4568 447.951116 229.332
L 447.951116 194.1144
Q 447.951116 187.9896 441.637469 187.9896
L 341.145242 187.9896
Q 334.831594 187.9896 334.831594 194.1144
L 334.831594 229.332
Q 334.831594 235.4568 341.145242 235.4568
z
" clip-path="url(#pf51b7c73cb)" style="fill: #eef3f8; stroke: #416b8a; stroke-width: 1.45; stroke-linejoin: miter"/>
   </g>
   <g id="text_1">
    <text style="font-weight: 700; font-size: 13.5px; font-family: 'DejaVu Sans'; text-anchor: start; fill: #07666a" x="42.036179" y="38.1872" transform="rotate(-0 42.036179 38.1872)">BATCHWISE SURROGATE LEARNING</text>
   </g>
   <g id="patch_8">
    <path d="M 160.943212 109.1328
Q 171.729027 109.1328 180.614184 109.1328
" clip-path="url(#pf51b7c73cb)" style="fill: none; stroke: #087f83; stroke-width: 1.7; stroke-linecap: round"/>
    <path d="M 175.414184 106.5328
L 180.614184 109.1328
L 175.414184 111.7328
z
" clip-path="url(#pf51b7c73cb)" style="fill: #087f83; stroke: #087f83; stroke-width: 1.7; stroke-linecap: round"/>
   </g>
   <g id="patch_9">
    <path d="M 290.372991 109.1328
Q 305.104836 109.1328 317.936023 109.1328
" clip-path="url(#pf51b7c73cb)" style="fill: none; stroke: #087f83; stroke-width: 1.7; stroke-linecap: round"/>
    <path d="M 312.736023 106.5328
L 317.936023 109.1328
L 312.736023 111.7328
z
" clip-path="url(#pf51b7c73cb)" style="fill: #087f83; stroke: #087f83; stroke-width: 1.7; stroke-linecap: round"/>
   </g>
   <g id="patch_10">
    <path d="M 447.16191 109.1328
Q 461.893755 109.1328 474.724942 109.1328
" clip-path="url(#pf51b7c73cb)" style="fill: none; stroke: #087f83; stroke-width: 1.7; stroke-linecap: round"/>
    <path d="M 469.524942 106.5328
L 474.724942 109.1328
L 469.524942 111.7328
z
" clip-path="url(#pf51b7c73cb)" style="fill: #087f83; stroke: #087f83; stroke-width: 1.7; stroke-linecap: round"/>
   </g>
   <g id="patch_11">
    <path d="M 573.434866 109.1328
Q 588.16671 109.1328 600.997897 109.1328
" clip-path="url(#pf51b7c73cb)" style="fill: none; stroke: #087f83; stroke-width: 1.7; stroke-linecap: round"/>
    <path d="M 595.797897 106.5328
L 600.997897 109.1328
L 595.797897 111.7328
z
" clip-path="url(#pf51b7c73cb)" style="fill: #087f83; stroke: #087f83; stroke-width: 1.7; stroke-linecap: round"/>
   </g>
   <g id="line2d_1">
    <path d="M 651.303188 147.4128
L 651.303188 169.36
" clip-path="url(#pf51b7c73cb)" style="fill: none; stroke: #416b8a; stroke-width: 1.55; stroke-linecap: round"/>
   </g>
   <g id="line2d_2">
    <path d="M 651.303188 169.36
L 391.391355 169.36
" clip-path="url(#pf51b7c73cb)" style="fill: none; stroke: #416b8a; stroke-width: 1.55; stroke-linecap: round"/>
   </g>
   <g id="patch_12">
    <path d="M 391.391355 169.36
Q 391.391355 179.3128 391.391355 187.532647
" clip-path="url(#pf51b7c73cb)" style="fill: none; stroke: #416b8a; stroke-width: 1.55; stroke-linecap: round"/>
    <path d="M 393.991355 182.332647
L 391.391355 187.532647
L 388.791355 182.332647
z
" clip-path="url(#pf51b7c73cb)" style="fill: #416b8a; stroke: #416b8a; stroke-width: 1.55; stroke-linecap: round"/>
   </g>
   <g id="line2d_3">
    <path d="M 375.607236 189.2656
L 375.607236 169.8704
" clip-path="url(#pf51b7c73cb)" style="fill: none; stroke: #416b8a; stroke-width: 1.55; stroke-linecap: round"/>
   </g>
   <g id="line2d_4">
    <path d="M 375.607236 169.8704
L 383.499296 169.8704
" clip-path="url(#pf51b7c73cb)" style="fill: none; stroke: #416b8a; stroke-width: 1.55; stroke-linecap: round"/>
   </g>
   <g id="patch_13">
    <path d="M 383.499296 169.8704
Q 383.499296 158.6416 383.499296 149.145753
" clip-path="url(#pf51b7c73cb)" style="fill: none; stroke: #416b8a; stroke-width: 1.55; stroke-linecap: round"/>
    <path d="M 380.899296 154.345753
L 383.499296 149.145753
L 386.099296 154.345753
z
" clip-path="url(#pf51b7c73cb)" style="fill: #416b8a; stroke: #416b8a; stroke-width: 1.55; stroke-linecap: round"/>
   </g>
   <g id="text_2">
    <text style="font-weight: 700; font-size: 12.8px; font-family: 'DejaVu Sans'; fill: #17324a" transform="translate(70.982901 89.5786)">Strategy</text>
    <text style="font-weight: 700; font-size: 12.8px; font-family: 'DejaVu Sans'; fill: #17324a" transform="translate(66.747901 103.1416)">formation</text>
   </g>
   <g id="text_3">
    <text style="font-size: 11.8px; font-family: 'DejaVu Sans'; fill: #17324a" transform="translate(62.340511 125.790987)">Researcher +</text>
    <text style="font-size: 11.8px; font-family: 'DejaVu Sans'; fill: #17324a" transform="translate(77.583714 135.676253)">AI agent</text>
   </g>
   <g id="text_4">
    <text style="font-weight: 700; font-size: 12.8px; font-family: 'DejaVu Sans'; fill: #17324a" transform="translate(199.796916 90.9816)">Candidate</text>
    <text style="font-weight: 700; font-size: 12.8px; font-family: 'DejaVu Sans'; fill: #17324a" transform="translate(220.874916 101.9016)">pool</text>
   </g>
   <g id="text_5">
    <text style="font-size: 11.8px; font-family: 'DejaVu Sans'; fill: #17324a" transform="translate(193.065088 119.042863)">Structural ops.</text>
    <text style="font-size: 11.8px; font-family: 'DejaVu Sans'; fill: #17324a" transform="translate(203.623323 131.395988)">Recombine</text>
    <text style="font-size: 11.8px; font-family: 'DejaVu Sans'; fill: #17324a" transform="translate(214.32076 141.462862)">Sample</text>
   </g>
   <g id="text_6">
    <text style="font-weight: 700; font-size: 12.8px; font-family: 'DejaVu Sans'; fill: #17324a" transform="translate(345.031296 106.5348)">SM-guided</text>
    <text style="font-weight: 700; font-size: 12.8px; font-family: 'DejaVu Sans'; fill: #17324a" transform="translate(350.814296 119.9848)">selection</text>
   </g>
   <g id="text_7">
    <text style="font-weight: 700; font-size: 12.8px; font-family: 'DejaVu Sans'; fill: #17324a" transform="translate(514.289233 107.7188)">EM</text>
    <text style="font-weight: 700; font-size: 12.8px; font-family: 'DejaVu Sans'; fill: #17324a" transform="translate(486.923233 119.9848)">evaluation</text>
   </g>
   <g id="text_8">
    <text style="font-weight: 700; font-size: 12.8px; font-family: 'DejaVu Sans'; fill: #17324a" transform="translate(610.271188 106.5848)">Compatible</text>
    <text style="font-weight: 700; font-size: 12.8px; font-family: 'DejaVu Sans'; fill: #17324a" transform="translate(635.025188 119.9848)">data</text>
   </g>
   <g id="text_9">
    <text style="font-weight: 700; font-size: 12.8px; font-family: 'DejaVu Sans'; text-anchor: middle; fill: #17324a" x="391.391355" y="216.5799" transform="rotate(-0 391.391355 216.5799)">SM update</text>
   </g>
   <g id="text_10">
    <g id="patch_14">
     <path d="M 116.210614 67.961261
L 226.721302 67.961261
Q 228.137302 67.961261 228.137302 66.545261
L 228.137302 54.744339
Q 228.137302 53.328339 226.721302 53.328339
L 116.210614 53.328339
Q 114.794614 53.328339 114.794614 54.744339
L 114.794614 66.545261
Q 114.794614 67.961261 116.210614 67.961261
z
" style="fill: #ffffff"/>
    </g>
    <text style="font-weight: 700; font-size: 11.8px; font-family: 'DejaVu Sans'; text-anchor: middle; fill: #416b8a" x="171.465958" y="63.710495" transform="rotate(-0 171.465958 63.710495)">executable rules</text>
   </g>
   <g id="text_11">
    <g id="patch_15">
     <path d="M 486.325797 176.676461
L 573.205141 176.676461
Q 574.621141 176.676461 574.621141 175.260461
L 574.621141 163.459539
Q 574.621141 162.043539 573.205141 162.043539
L 486.325797 162.043539
Q 484.909797 162.043539 484.909797 163.459539
L 484.909797 175.260461
Q 484.909797 176.676461 486.325797 176.676461
z
" style="fill: #ffffff"/>
    </g>
    <text style="font-weight: 700; font-size: 11.8px; font-family: 'DejaVu Sans'; text-anchor: middle; fill: #416b8a" x="529.765469" y="172.425695" transform="rotate(-0 529.765469 172.425695)">training data</text>
   </g>
  </g>
 </g>
 <defs>
  <clipPath id="pf51b7c73cb">
   <rect x="18.36" y="18.792" width="705.024" height="275.616"/>
  </clipPath>
 </defs>
</svg>
